<?xml version="1.0" encoding="UTF-8"?>
<svg width="64px" height="64px" viewBox="0 0 64 64" version="1.1" xmlns="http://www.w3.org/2000/svg" xmlns:xlink="http://www.w3.org/1999/xlink">
    <!-- Generator: Sketch 49.1 (51147) - http://www.bohemiancoding.com/sketch -->
    <title>logo/light</title>
    <desc>Created with Sketch.</desc>
    <defs></defs>
    <g id="logo/light" stroke="none" stroke-width="1" fill="none" fill-rule="evenodd">
        <path d="M8,0 L56,0 C60.418278,-8.11624501e-16 64,3.581722 64,8 L64,56 C64,60.418278 60.418278,64 56,64 L8,64 C3.581722,64 5.41083001e-16,60.418278 0,56 L0,8 C-5.41083001e-16,3.581722 3.581722,8.11624501e-16 8,0 Z M22.7900391,47.203125 L22.7900391,32.2373047 L34.8505859,32.2373047 L34.8505859,29.7958984 L22.7900391,29.7958984 L22.7900391,16.4902344 L31.1884766,16.4902344 C31.9371782,16.4902344 32.5760065,16.6000966 33.1049805,16.8198242 C33.6339545,17.0395519 34.0734032,17.3365867 34.4233398,17.7109375 C34.7732765,18.0852883 35.0418285,18.5206681 35.2290039,19.0170898 C35.4161793,19.5135116 35.5423174,20.0384087 35.6074219,20.5917969 L35.8515625,22.7402344 L38.4394531,22.7402344 L38.1953125,14 L13,14 L13,16.0996094 L13.6347656,16.0996094 C14.2044299,16.0996094 14.737465,16.1402991 15.2338867,16.2216797 C15.7303085,16.3030603 16.1656882,16.4698881 16.5400391,16.722168 C16.9143899,16.9744479 17.2073557,17.3365862 17.4189453,17.8085938 C17.6305349,18.2806013 17.7363281,18.9072227 17.7363281,19.6884766 L17.7363281,44.2490234 C17.7363281,44.981449 17.6264659,45.5714496 17.4067383,46.019043 C17.1870106,46.4666364 16.8899758,46.8043608 16.515625,47.0322266 C16.1412742,47.2600923 15.7058944,47.4106442 15.2094727,47.4838867 C14.7130509,47.5571293 14.1881538,47.59375 13.6347656,47.59375 L13,47.59375 L13,49.6933594 L39.8066406,49.6933594 L40.1484375,40.953125 L37.5361328,40.953125 L37.1943359,43.1015625 C37.1129553,43.6549507 36.9664724,44.1798478 36.7548828,44.6762695 C36.5432932,45.1726913 36.2503274,45.608071 35.8759766,45.9824219 C35.5016257,46.3567727 35.0336942,46.6538075 34.472168,46.8735352 C33.9106417,47.0932628 33.2311238,47.203125 32.4335938,47.203125 L22.7900391,47.203125 Z M45.3486328,46.6416016 C45.3486328,47.2763704 45.4300122,47.8134744 45.5927734,48.2529297 C45.7555347,48.692385 45.979328,49.0423164 46.2641602,49.3027344 C46.5489923,49.5631523 46.8826478,49.750325 47.2651367,49.8642578 C47.6476256,49.9781907 48.0585916,50.0351562 48.4980469,50.0351562 C48.9212261,50.0351562 49.3240541,49.9781907 49.706543,49.8642578 C50.0890319,49.750325 50.4226874,49.5631523 50.7075195,49.3027344 C50.9923517,49.0423164 51.220214,48.692385 51.3911133,48.2529297 C51.5620126,47.8134744 51.6474609,47.2763704 51.6474609,46.6416016 C51.6474609,45.9905566 51.5620126,45.4493837 51.3911133,45.0180664 C51.220214,44.5867491 50.9923517,44.2408867 50.7075195,43.9804688 C50.4226874,43.7200508 50.0890319,43.5328782 49.706543,43.4189453 C49.3240541,43.3050125 48.9212261,43.2480469 48.4980469,43.2480469 C48.0585916,43.2480469 47.6476256,43.3050125 47.2651367,43.4189453 C46.8826478,43.5328782 46.5489923,43.7200508 46.2641602,43.9804688 C45.979328,44.2408867 45.7555347,44.5867491 45.5927734,45.0180664 C45.4300122,45.4493837 45.3486328,45.9905566 45.3486328,46.6416016 Z" id="Combined-Shape" fill="#416788"></path>
    </g>
</svg>