<?xml version="1.0" encoding="UTF-8"?>
<svg width="153px" height="153px" viewBox="0 0 153 153" version="1.1" xmlns="http://www.w3.org/2000/svg" xmlns:xlink="http://www.w3.org/1999/xlink">
    <!-- Generator: Sketch 53.2 (72643) - https://sketchapp.com -->
    <title>dark-logo</title>
    <desc>Created with Sketch.</desc>
    <g id="dark-logo" stroke="none" stroke-width="1" fill="none" fill-rule="evenodd">
        <rect id="Bounds" stroke="#FFFFFF" stroke-width="4" x="21" y="21" width="110" height="110"></rect>
        <path d="M50.0758579,86.9596491 C52.6002002,86.9596491 54.7154738,86.8038027 56.4217422,86.4921053 C58.1280107,86.1804078 59.4836556,85.6888922 60.4887179,85.0175439 C61.4937801,84.3461955 62.218349,83.4830462 62.6624462,82.4280702 C63.1065435,81.3730941 63.3285888,80.126323 63.3285888,78.6877193 L65.7827982,78.6877193 L65.7827982,98.3245614 L63.3285888,98.3245614 C63.3285888,96.8859577 63.1299167,95.6391866 62.7325665,94.5842105 C62.3352163,93.5292345 61.6340206,92.654097 60.6289584,91.9587719 C59.6238962,91.2634468 58.2682512,90.7359667 56.5619828,90.3763158 C54.8557144,90.0166649 52.6936944,89.8368421 50.0758579,89.8368421 L50.0758579,106.092982 C50.0758579,107.675447 50.2628434,108.982159 50.63682,110.013158 C51.0107967,111.044157 51.6535594,111.88333 52.5651274,112.530702 C53.4766955,113.178073 54.6804148,113.633624 56.1763213,113.897368 C57.6722279,114.161112 59.5187098,114.292982 61.7158226,114.292982 C64.1934178,114.292982 66.2970048,114.11316 68.0266468,113.753509 C69.7562888,113.393858 71.2054265,112.78246 72.3741035,111.919298 C73.5427805,111.056136 74.4777081,109.917259 75.1789143,108.502632 C75.8801205,107.088005 76.4644502,105.325742 76.931921,103.215789 L79.5964912,103.215789 L78.5446872,117.385965 L35,117.385965 L35,114.652632 C36.6361478,114.604678 37.956733,114.46082 38.9617952,114.221053 C39.9668574,113.981285 40.7498593,113.573687 41.3108242,112.998246 C41.8717892,112.422804 42.2457602,111.607608 42.4327485,110.552632 C42.6197369,109.497656 42.7132296,108.131003 42.7132296,106.452632 L42.7132296,72.9333333 C42.7132296,71.2549624 42.6314235,69.9002976 42.4678087,68.8692982 C42.3041939,67.8382989 41.9769692,67.0231024 41.4861249,66.4236842 C40.9952806,65.824266 40.2823983,65.4166677 39.3474567,65.2008772 C38.4125151,64.9850866 37.1971092,64.8292402 35.7012027,64.7333333 L35.7012027,62 L76.2307183,62 L76.8618007,74.6596491 L74.4075913,74.6596491 C74.1271088,72.7415109 73.6713316,71.1710587 73.0402461,69.9482456 C72.4091605,68.7254325 71.5443525,67.7543896 70.4457961,67.0350877 C69.3472397,66.3157859 67.956535,65.8122821 66.2736401,65.5245614 C64.5907452,65.2368407 62.5572777,65.0929825 60.1731767,65.0929825 L51.2679025,65.0929825 C50.4732021,65.0929825 50.0758579,65.5005807 50.0758579,66.3157895 L50.0758579,86.9596491 Z M98.8525672,105.737329 C98.8525672,107.73983 98.9009599,109.327155 98.9977467,110.49935 C99.0945335,111.671546 99.348595,112.56289 99.7599388,113.173408 C100.171283,113.783927 100.764093,114.186863 101.538387,114.382229 C102.312682,114.577595 103.401517,114.724117 104.804925,114.8218 L104.804925,117.385965 L85.4960567,117.385965 L85.4960567,114.8218 C86.8994651,114.772958 88.0124966,114.638646 88.8351843,114.41886 C89.657872,114.199073 90.2869767,113.796137 90.7225173,113.210039 C91.1580579,112.623941 91.4363157,111.781438 91.5572992,110.682505 C91.6782827,109.583572 91.7387735,108.106139 91.7387735,106.250162 L91.7387735,97.678525 C91.7387735,94.3573042 91.702479,91.7687444 91.6298889,89.912768 C91.5572988,88.0567917 91.3153355,86.6892507 90.9039916,85.810104 C90.4926478,84.9309573 89.8514449,84.4059192 88.9803638,84.234974 C88.1092826,84.0640288 86.8994659,83.9785575 85.3508772,83.9785575 L85.3508772,81.4143925 L98.0540802,78.6304418 L99.0703364,87.7149123 L99.3606953,87.7149123 C99.9898095,86.2496678 100.77619,84.9065471 101.719862,83.6855101 C102.663533,82.464473 103.691877,81.426607 104.804925,80.5718811 C105.917973,79.7171551 107.079397,79.0455948 108.289232,78.55718 C109.499067,78.0687652 110.73308,77.8245614 111.991309,77.8245614 C113.539897,77.8245614 114.761812,78.2030772 115.65709,78.9601202 C116.552368,79.7171632 117,80.7306088 117,82.0004873 C117,83.1726829 116.637055,84.088447 115.911154,84.747807 C115.185253,85.407167 114.144811,85.7368421 112.789796,85.7368421 C112.015501,85.7368421 111.3622,85.6391606 110.829873,85.4437947 C110.297545,85.2484287 109.825717,85.0408555 109.414373,84.8210689 C109.003029,84.6012822 108.615888,84.393709 108.252937,84.1983431 C107.889987,84.0029771 107.490747,83.9052956 107.055207,83.9052956 C105.748585,83.9052956 104.441983,84.7477986 103.135361,86.4328298 C101.82874,88.1178609 100.812494,90.2546438 100.086593,92.8432424 C99.6994455,94.2596454 99.3969913,95.85918 99.179221,97.6418941 C98.9614507,99.4246082 98.8525672,101.292767 98.8525672,103.246426 L98.8525672,105.737329 Z" id="Er" fill="#FFFFFF" fill-rule="nonzero"></path>
    </g>
</svg>