<?xml version="1.0" encoding="UTF-8"?>
<svg width="3935px" height="593px" viewBox="0 0 3935 593" version="1.1" xmlns="http://www.w3.org/2000/svg" xmlns:xlink="http://www.w3.org/1999/xlink">
    <!-- Generator: Sketch 48.2 (47327) - http://www.bohemiancoding.com/sketch -->
    <title>Group</title>
    <desc>Created with Sketch.</desc>
    <defs></defs>
    <g id="companylogofullv2" stroke="none" stroke-width="1" fill="none" fill-rule="evenodd" transform="translate(-70.000000, -216.000000)">
        <g id="Group" transform="translate(70.000000, 216.000000)">
            <path d="M1117,468 C1117,479.666725 1112.50005,488.333305 1103.5,494 C1094.49995,499.666695 1081.66675,502.000005 1065,501 L1051,500 C1020.99985,497.666655 998.250078,488.583412 982.75,472.75 C967.249923,456.916587 959.5,434.833475 959.5,406.5 L959.5,318 L945,318 C918.3332,318 905,307.00011 905,285 C905,263.333225 918.3332,252.5 945,252.5 L959.5,252.5 L959.5,220 C959.5,207.33327 963.49996,197.250037 971.5,189.75 C979.50004,182.249963 990.333265,178.5 1004,178.5 C1017.66674,178.5 1028.49996,182.249963 1036.5,189.75 C1044.50004,197.250037 1048.5,207.33327 1048.5,220 L1048.5,252.5 L1076,252.5 C1102.6668,252.5 1116,263.333225 1116,285 C1116,307.00011 1102.6668,318 1076,318 L1048.5,318 L1048.5,414 C1048.5,420.333365 1050.41665,425.666645 1054.25,430 C1058.08335,434.333355 1062.99997,436.666665 1069,437 L1083.5,438 C1105.83344,439.33334 1117,449.33324 1117,468 Z M1359.25,428.5 C1364.08336,434.50003 1366.5,442.333285 1366.5,452 C1366.5,465.3334 1360.00006,475.499965 1347,482.5 C1335.66661,488.166695 1322.25008,492.916647 1306.75,496.75 C1291.24992,500.583353 1277.00006,502.5 1264,502.5 C1236.66653,502.5 1212.83344,497.333385 1192.5,487 C1172.16656,476.666615 1156.50005,461.83343 1145.5,442.5 C1134.49995,423.16657 1129,400.50013 1129,374.5 C1129,349.83321 1134.24995,327.750097 1144.75,308.25 C1155.25005,288.749903 1169.91657,273.583388 1188.75,262.75 C1207.58343,251.916612 1228.83322,246.5 1252.5,246.5 C1275.50012,246.5 1295.66658,251.49995 1313,261.5 C1330.33342,271.50005 1343.74995,285.666575 1353.25,304 C1362.75005,322.333425 1367.5,343.83321 1367.5,368.5 C1367.5,376.166705 1365.75002,382.083312 1362.25,386.25 C1358.74998,390.416688 1353.6667,392.5 1347,392.5 L1215,392.5 C1217.33335,408.50008 1222.49996,419.999965 1230.5,427 C1238.50004,434.000035 1250.33326,437.5 1266,437.5 C1274.33337,437.5 1281.99996,436.583343 1289,434.75 C1296.00004,432.916657 1303.83329,430.33335 1312.5,427 C1317.50003,424.99999 1322.41664,423.250008 1327.25,421.75 C1332.08336,420.249992 1336.49998,419.5 1340.5,419.5 C1348.16671,419.5 1354.41664,422.49997 1359.25,428.5 Z M1227,317.75 C1219.99996,325.250037 1215.83334,336.166595 1214.5,350.5 L1293,350.5 C1290.99999,321.16652 1278.33345,306.5 1255,306.5 C1243.33327,306.5 1234.00004,310.249963 1227,317.75 Z M1431.5,468.5 C1408.16655,445.83322 1396.5,415.000195 1396.5,376 C1396.5,350.333205 1402.16661,327.666765 1413.5,308 C1424.83339,288.333235 1440.7499,273.16672 1461.25,262.5 C1481.7501,251.83328 1505.16653,246.5 1531.5,246.5 C1545.50007,246.5 1559.49993,248.333315 1573.5,252 C1587.50007,255.666685 1599.83328,260.8333 1610.5,267.5 C1620.83338,273.833365 1626,283.499935 1626,296.5 C1626,306.833385 1623.58336,315.249968 1618.75,321.75 C1613.91664,328.250032 1607.66671,331.5 1600,331.5 C1594.99997,331.5 1590.16669,330.750007 1585.5,329.25 C1580.83331,327.749993 1575.66669,325.500015 1570,322.5 C1563.3333,319.499985 1557.66669,317.250007 1553,315.75 C1548.33331,314.249993 1543.16669,313.5 1537.5,313.5 C1504.49984,313.5 1488,333.666465 1488,374 C1488,394.0001 1492.24996,409.249947 1500.75,419.75 C1509.25004,430.250053 1521.49992,435.5 1537.5,435.5 C1543.16669,435.5 1548.41664,434.750008 1553.25,433.25 C1558.08336,431.749992 1563.49997,429.500015 1569.5,426.5 C1576.1667,423.499985 1581.58331,421.250008 1585.75,419.75 C1589.91669,418.249992 1594.49997,417.5 1599.5,417.5 C1607.16671,417.5 1613.41664,420.749967 1618.25,427.25 C1623.08336,433.750032 1625.5,442.166615 1625.5,452.5 C1625.5,458.833365 1624.16668,464.583308 1621.5,469.75 C1618.83332,474.916692 1615.16669,478.83332 1610.5,481.5 C1587.49988,495.50007 1559.50016,502.5 1526.5,502.5 C1486.4998,502.5 1454.83345,491.16678 1431.5,468.5 Z M1889.5,272.75 C1903.50007,290.250087 1910.5,316.833155 1910.5,352.5 L1910.5,460.5 C1910.5,473.16673 1906.50004,483.16663 1898.5,490.5 C1890.49996,497.83337 1879.66674,501.5 1866,501.5 C1852.33327,501.5 1841.50004,497.83337 1833.5,490.5 C1825.49996,483.16663 1821.5,473.16673 1821.5,460.5 L1821.5,350.5 C1821.5,326.49988 1811.16677,314.5 1790.5,314.5 C1777.1666,314.5 1766.58337,318.749957 1758.75,327.25 C1750.91663,335.750043 1747,347.166595 1747,361.5 L1747,460.5 C1747,473.16673 1743.00004,483.16663 1735,490.5 C1726.99996,497.83337 1716.16674,501.5 1702.5,501.5 C1688.83327,501.5 1678.00004,497.83337 1670,490.5 C1661.99996,483.16663 1658,473.16673 1658,460.5 L1658,183.5 C1658,171.833275 1662.16663,162.250037 1670.5,154.75 C1678.83338,147.249963 1689.83327,143.5 1703.5,143.5 C1716.50007,143.5 1726.99996,146.999965 1735,154 C1743.00004,161.000035 1747,170.333275 1747,182 L1747,282 C1756.00005,270.333275 1767.1666,261.50003 1780.5,255.5 C1793.8334,249.49997 1808.83325,246.5 1825.5,246.5 C1854.16681,246.5 1875.49993,255.249912 1889.5,272.75 Z M2191.5,272.75 C2205.83341,290.250087 2213,316.833155 2213,352.5 L2213,460.5 C2213,473.16673 2209.00004,483.16663 2201,490.5 C2192.99996,497.83337 2182.16673,501.5 2168.5,501.5 C2154.83327,501.5 2144.00004,497.83337 2136,490.5 C2127.99996,483.16663 2124,473.16673 2124,460.5 L2124,356.5 C2124,341.83326 2121.41669,331.1667 2116.25,324.5 C2111.08331,317.8333 2103.33338,314.5 2093,314.5 C2079.6666,314.5 2069.08337,318.749957 2061.25,327.25 C2053.41663,335.750043 2049.5,347.166595 2049.5,361.5 L2049.5,460.5 C2049.5,473.16673 2045.50004,483.16663 2037.5,490.5 C2029.49996,497.83337 2018.66674,501.5 2005,501.5 C1991.33327,501.5 1980.50004,497.83337 1972.5,490.5 C1964.49996,483.16663 1960.5,473.16673 1960.5,460.5 L1960.5,287.5 C1960.5,275.833275 1964.66663,266.250038 1973,258.75 C1981.33338,251.249962 1992.1666,247.5 2005.5,247.5 C2018.16673,247.5 2028.24996,250.999965 2035.75,258 C2043.25004,265.000035 2047,274.16661 2047,285.5 C2055.66671,272.83327 2066.83327,263.1667 2080.5,256.5 C2094.16673,249.8333 2109.33325,246.5 2126,246.5 C2155.33348,246.5 2177.16659,255.249912 2191.5,272.75 Z M2315.75,486.75 C2295.2499,476.249947 2279.41672,461.33343 2268.25,442 C2257.08328,422.66657 2251.5,400.00013 2251.5,374 C2251.5,347.99987 2257.08328,325.416763 2268.25,306.25 C2279.41672,287.083237 2295.16657,272.333385 2315.5,262 C2335.83344,251.666615 2359.66653,246.5 2387,246.5 C2414.33347,246.5 2438.16657,251.666615 2458.5,262 C2478.83344,272.333385 2494.58328,287.083237 2505.75,306.25 C2516.91672,325.416763 2522.5,347.99987 2522.5,374 C2522.5,400.00013 2516.91672,422.66657 2505.75,442 C2494.58328,461.33343 2478.83344,476.249947 2458.5,486.75 C2438.16657,497.250053 2414.33347,502.5 2387,502.5 C2359.99986,502.5 2336.2501,497.250053 2315.75,486.75 Z M2434.5,374 C2434.5,332.66646 2418.66683,312 2387,312 C2355.33317,312 2339.5,332.66646 2339.5,374 C2339.5,415.33354 2355.33317,436 2387,436 C2418.66683,436 2434.5,415.33354 2434.5,374 Z M2575.75,491.25 C2567.24996,484.416632 2563,474.166735 2563,460.5 L2563,185 C2563,171.333265 2567.24996,161.000035 2575.75,154 C2584.25004,146.999965 2594.83327,143.5 2607.5,143.5 C2620.16673,143.5 2630.74996,146.999965 2639.25,154 C2647.75004,161.000035 2652,171.333265 2652,185 L2652,460.5 C2652,474.166735 2647.75004,484.416632 2639.25,491.25 C2630.74996,498.083368 2620.16673,501.5 2607.5,501.5 C2594.83327,501.5 2584.25004,498.083368 2575.75,491.25 Z M2756.25,486.75 C2735.7499,476.249947 2719.91672,461.33343 2708.75,442 C2697.58328,422.66657 2692,400.00013 2692,374 C2692,347.99987 2697.58328,325.416763 2708.75,306.25 C2719.91672,287.083237 2735.66657,272.333385 2756,262 C2776.33344,251.666615 2800.16653,246.5 2827.5,246.5 C2854.83347,246.5 2878.66657,251.666615 2899,262 C2919.33344,272.333385 2935.08328,287.083237 2946.25,306.25 C2957.41672,325.416763 2963,347.99987 2963,374 C2963,400.00013 2957.41672,422.66657 2946.25,442 C2935.08328,461.33343 2919.33344,476.249947 2899,486.75 C2878.66657,497.250053 2854.83347,502.5 2827.5,502.5 C2800.49986,502.5 2776.7501,497.250053 2756.25,486.75 Z M2875,374 C2875,332.66646 2859.16683,312 2827.5,312 C2795.83317,312 2780,332.66646 2780,374 C2780,415.33354 2795.83317,436 2827.5,436 C2859.16683,436 2875,415.33354 2875,374 Z M3254,258.75 C3262.00004,266.250038 3266,276.166605 3266,288.5 L3266,468.5 C3266,509.16687 3253.75012,539.999895 3229.25,561 C3204.74988,582.000105 3168.83357,592.5 3121.5,592.5 C3103.16658,592.5 3085.83342,590.83335 3069.5,587.5 C3053.16658,584.16665 3039.33339,579.333365 3028,573 C3021.99997,569.66665 3017.25002,565.33336 3013.75,560 C3010.24998,554.66664 3008.5,548.6667 3008.5,542 C3008.5,532.333285 3010.91664,524.50003 3015.75,518.5 C3020.58336,512.49997 3026.83329,509.5 3034.5,509.5 C3040.50003,509.5 3051.33326,511.999975 3067,517 C3077.33338,520.33335 3086.49996,522.916657 3094.5,524.75 C3102.50004,526.583343 3110.66662,527.5 3119,527.5 C3139.33344,527.5 3154.24995,523.250043 3163.75,514.75 C3173.25005,506.249957 3178,492.833425 3178,474.5 L3178,455.5 C3170.66663,466.500055 3160.16674,475.249968 3146.5,481.75 C3132.83327,488.250032 3118.00008,491.5 3102,491.5 C3080.66656,491.5 3061.66675,486.50005 3045,476.5 C3028.33325,466.49995 3015.33338,452.250092 3006,433.75 C2996.66662,415.249908 2992,393.833455 2992,369.5 C2992,345.166545 2996.66662,323.66676 3006,305 C3015.33338,286.33324 3028.33325,271.916718 3045,261.75 C3061.66675,251.583282 3080.66656,246.5 3102,246.5 C3118.33342,246.5 3133.33327,249.8333 3147,256.5 C3160.66673,263.1667 3171.16663,272.333275 3178.5,284 C3179.16667,272.66661 3183.41663,263.750032 3191.25,257.25 C3199.08337,250.749968 3209.33327,247.5 3222,247.5 C3235.3334,247.5 3245.99996,251.249962 3254,258.75 Z M3165.5,410.5 C3174.16671,400.833285 3178.5,387.166755 3178.5,369.5 C3178.5,351.833245 3174.16671,338.00005 3165.5,328 C3156.83329,317.99995 3144.66674,313 3129,313 C3113.66659,313 3101.66671,317.916618 3093,327.75 C3084.33329,337.583382 3080,351.49991 3080,369.5 C3080,386.83342 3084.41662,400.416618 3093.25,410.25 C3102.08338,420.083382 3113.99993,425 3129,425 C3144.66674,425 3156.83329,420.166715 3165.5,410.5 Z M3330.75,491.25 C3322.24996,484.416632 3318,474.166735 3318,460.5 L3318,288.5 C3318,274.833265 3322.24996,264.583368 3330.75,257.75 C3339.25004,250.916632 3349.83327,247.5 3362.5,247.5 C3375.16673,247.5 3385.74996,250.916632 3394.25,257.75 C3402.75004,264.583368 3407,274.833265 3407,288.5 L3407,460.5 C3407,474.166735 3402.75004,484.416632 3394.25,491.25 C3385.74996,498.083368 3375.16673,501.5 3362.5,501.5 C3349.83327,501.5 3339.25004,498.083368 3330.75,491.25 Z M3326.75,200.75 C3317.91662,192.916628 3313.5,182.500065 3313.5,169.5 C3313.5,156.499935 3317.91662,146.166705 3326.75,138.5 C3335.58338,130.833295 3347.49993,127 3362.5,127 C3377.16674,127 3388.99996,130.833295 3398,138.5 C3407.00005,146.166705 3411.5,156.499935 3411.5,169.5 C3411.5,182.500065 3407.08338,192.916628 3398.25,200.75 C3389.41662,208.583372 3377.50008,212.5 3362.5,212.5 C3347.49993,212.5 3335.58338,208.583372 3326.75,200.75 Z M3677.25,428.5 C3682.08336,434.50003 3684.5,442.333285 3684.5,452 C3684.5,465.3334 3678.00007,475.499965 3665,482.5 C3653.66661,488.166695 3640.25008,492.916647 3624.75,496.75 C3609.24992,500.583353 3595.00007,502.5 3582,502.5 C3554.66653,502.5 3530.83344,497.333385 3510.5,487 C3490.16656,476.666615 3474.50005,461.83343 3463.5,442.5 C3452.49995,423.16657 3447,400.50013 3447,374.5 C3447,349.83321 3452.24995,327.750097 3462.75,308.25 C3473.25005,288.749903 3487.91657,273.583388 3506.75,262.75 C3525.58343,251.916612 3546.83322,246.5 3570.5,246.5 C3593.50011,246.5 3613.66658,251.49995 3631,261.5 C3648.33342,271.50005 3661.74995,285.666575 3671.25,304 C3680.75005,322.333425 3685.5,343.83321 3685.5,368.5 C3685.5,376.166705 3683.75002,382.083312 3680.25,386.25 C3676.74998,390.416688 3671.6667,392.5 3665,392.5 L3533,392.5 C3535.33335,408.50008 3540.49996,419.999965 3548.5,427 C3556.50004,434.000035 3568.33326,437.5 3584,437.5 C3592.33338,437.5 3599.99996,436.583343 3607,434.75 C3614.00004,432.916657 3621.83329,430.33335 3630.5,427 C3635.50002,424.99999 3640.41664,423.250008 3645.25,421.75 C3650.08336,420.249992 3654.49998,419.5 3658.5,419.5 C3666.16671,419.5 3672.41664,422.49997 3677.25,428.5 Z M3545,317.75 C3537.99997,325.250037 3533.83334,336.166595 3532.5,350.5 L3611,350.5 C3608.99999,321.16652 3596.33345,306.5 3573,306.5 C3561.33328,306.5 3552.00004,310.249963 3545,317.75 Z M3766.5,497.5 C3751.16659,494.16665 3737.66673,488.83337 3726,481.5 C3721.33331,479.166655 3717.66668,475.166695 3715,469.5 C3712.33332,463.833305 3711,457.500035 3711,450.5 C3711,441.499955 3713.41664,434.083363 3718.25,428.25 C3723.08336,422.416637 3729.16663,419.5 3736.5,419.5 C3741.50003,419.5 3746.16665,420.083327 3750.5,421.25 C3754.83336,422.416673 3760.16664,424.33332 3766.5,427 C3777.16672,430.666685 3786.58329,433.49999 3794.75,435.5 C3802.91671,437.50001 3813.33327,438.5 3826,438.5 C3835.00005,438.5 3842.08331,437.250013 3847.25,434.75 C3852.41669,432.249987 3855,428.66669 3855,424 C3855,420.333315 3853.75001,417.50001 3851.25,415.5 C3848.74999,413.49999 3844.00004,411.583343 3837,409.75 C3829.99997,407.916657 3818.16675,405.33335 3801.5,402 C3771.83319,396.333305 3750.41673,387.750058 3737.25,376.25 C3724.08327,364.749942 3717.5,348.500105 3717.5,327.5 C3717.5,312.16659 3722.24995,298.333395 3731.75,286 C3741.25005,273.666605 3754.33325,264.000035 3771,257 C3787.66675,249.999965 3806.33323,246.5 3827,246.5 C3842.00008,246.5 3856.58326,248.333315 3870.75,252 C3884.91674,255.666685 3897.49995,260.8333 3908.5,267.5 C3918.83339,273.50003 3924,283.1666 3924,296.5 C3924,305.83338 3921.50003,313.666635 3916.5,320 C3911.49998,326.333365 3905.33337,329.5 3898,329.5 C3889.33329,329.5 3879.00006,326.666695 3867,321 C3858.99996,317.333315 3851.9167,314.583343 3845.75,312.75 C3839.5833,310.916657 3832.33338,310 3824,310 C3815.66663,310 3809.16669,311.249987 3804.5,313.75 C3799.83331,316.250012 3797.5,319.83331 3797.5,324.5 C3797.5,329.83336 3800.74997,333.999985 3807.25,337 C3813.75003,340.000015 3826.66657,343.333315 3846,347 C3878.3335,352.666695 3901.1666,361.249942 3914.5,372.75 C3927.8334,384.250058 3934.5,400.833225 3934.5,422.5 C3934.5,446.833455 3924.41677,466.249928 3904.25,480.75 C3884.08323,495.250072 3857.00017,502.5 3823,502.5 C3800.66656,502.5 3781.83341,500.83335 3766.5,497.5 Z" id="technologies" fill="#253237"></path>
            <path d="M183,254.75 C189.6667,260.916698 193,269.99994 193,282 C193,295.3334 189.916697,304.99997 183.75,311 C177.583303,317.00003 166.50008,320.833325 150.5,322.5 L135.5,324 C118.83325,326.00001 106.916703,331.249958 99.75,339.75 C92.5832975,348.250043 89,359.83326 89,374.5 L89,460 C89,473.666735 84.7500425,483.916633 76.25,490.75 C67.7499575,497.583368 57.16673,501 44.5,501 C31.83327,501 21.2500425,497.583368 12.75,490.75 C4.2499575,483.916633 0,473.666735 0,460 L0,287 C0,274.33327 4.2499575,264.500035 12.75,257.5 C21.2500425,250.499965 31.49994,247 43.5,247 C55.833395,247 65.7499625,250.3333 73.25,257 C80.7500375,263.6667 84.5,272.99994 84.5,285 L84.5,294.5 C89.83336,279.83326 98.5832725,268.50004 110.75,260.5 C122.916728,252.49996 135.6666,248.16667 149,247.5 L156,247 C167.33339,245.999995 176.3333,248.583303 183,254.75 Z M428.25,428 C433.083357,434.00003 435.5,441.833285 435.5,451.5 C435.5,464.8334 429.000065,474.999965 416,482 C404.66661,487.666695 391.250077,492.416648 375.75,496.25 C360.249922,500.083352 346.000065,502 333,502 C305.66653,502 281.833435,496.833385 261.5,486.5 C241.166565,476.166615 225.500055,461.33343 214.5,442 C203.499945,422.66657 198,400.00013 198,374 C198,349.33321 203.249947,327.250097 213.75,307.75 C224.250052,288.249903 238.916572,273.083388 257.75,262.25 C276.583427,251.416612 297.833215,246 321.5,246 C344.500115,246 364.66658,250.99995 382,261 C399.33342,271.00005 412.749952,285.166575 422.25,303.5 C431.750047,321.833425 436.5,343.33321 436.5,368 C436.5,375.666705 434.750017,381.583312 431.25,385.75 C427.749982,389.916688 422.6667,392 416,392 L284,392 C286.333345,408.00008 291.49996,419.499965 299.5,426.5 C307.50004,433.500035 319.333255,437 335,437 C343.333375,437 350.999965,436.083343 358,434.25 C365.000035,432.416657 372.83329,429.83335 381.5,426.5 C386.500025,424.49999 391.416642,422.750007 396.25,421.25 C401.083357,419.749993 405.49998,419 409.5,419 C417.166705,419 423.416642,421.99997 428.25,428 Z M296,317.25 C288.999965,324.750037 284.83334,335.666595 283.5,350 L362,350 C359.99999,320.66652 347.33345,306 324,306 C312.333275,306 303.000035,309.749963 296,317.25 Z M656.75,253.5 C663.250032,249.49998 670.333295,247.5 678,247.5 C689.000055,247.5 698.749958,251.16663 707.25,258.5 C715.750043,265.83337 720,274.666615 720,285 C720,290.666695 718.66668,296.16664 716,301.5 L628.5,475.5 C624.49998,483.833375 618.750037,490.249977 611.25,494.75 C603.749963,499.250023 595.500045,501.5 586.5,501.5 C577.499955,501.5 569.166705,499.250023 561.5,494.75 C553.833295,490.249977 548.00002,483.833375 544,475.5 L456.5,301.5 C453.83332,295.49997 452.5,290.16669 452.5,285.5 C452.5,274.83328 457.083287,265.750038 466.25,258.25 C475.416713,250.749962 485.99994,247 498,247 C506.00004,247 513.416632,249.083312 520.25,253.25 C527.083368,257.416687 532.333315,263.666625 536,272 L589,386.5 L641.5,272 C645.166685,263.666625 650.249968,257.50002 656.75,253.5 Z M760.25,490.75 C751.749957,483.916632 747.5,473.666735 747.5,460 L747.5,288 C747.5,274.333265 751.749957,264.083368 760.25,257.25 C768.750042,250.416632 779.33327,247 792,247 C804.66673,247 815.249957,250.416632 823.75,257.25 C832.250043,264.083368 836.5,274.333265 836.5,288 L836.5,460 C836.5,473.666735 832.250043,483.916632 823.75,490.75 C815.249957,497.583368 804.66673,501 792,501 C779.33327,501 768.750042,497.583368 760.25,490.75 Z M756.25,200.25 C747.416622,192.416628 743,182.000065 743,169 C743,155.999935 747.416622,145.666705 756.25,138 C765.083377,130.333295 776.999925,126.5 792,126.5 C806.66674,126.5 818.499955,130.333295 827.5,138 C836.500045,145.666705 841,155.999935 841,169 C841,182.000065 836.583377,192.416628 827.75,200.25 C818.916622,208.083372 807.000075,212 792,212 C776.999925,212 765.083377,208.083372 756.25,200.25 Z" id="revi" fill="#9FD356"></path>
            <g id="exclaims" transform="translate(33.000000, 0.000000)" fill="#253237">
                <rect id="Rectangle-4" x="262" y="0" width="63" height="127" rx="31.5"></rect>
                <rect id="Rectangle-4" transform="translate(520.500000, 142.500000) rotate(45.000000) translate(-520.500000, -142.500000) " x="489" y="79" width="63" height="127" rx="31.5"></rect>
                <rect id="Rectangle-4" transform="translate(67.500000, 146.500000) scale(-1, 1) rotate(45.000000) translate(-67.500000, -146.500000) " x="36" y="83" width="63" height="127" rx="31.5"></rect>
            </g>
        </g>
    </g>
</svg>